<?xml version="1.0" encoding="UTF-8" standalone="no"?>
<!DOCTYPE svg PUBLIC "-//W3C//DTD SVG 1.1//EN" "http://www.w3.org/Graphics/SVG/1.1/DTD/svg11.dtd">
<svg width="100%" height="100%" viewBox="0 0 1124 510" version="1.1" xmlns="http://www.w3.org/2000/svg" xmlns:xlink="http://www.w3.org/1999/xlink" xml:space="preserve" xmlns:serif="http://www.serif.com/" style="fill-rule:evenodd;clip-rule:evenodd;stroke-linejoin:round;stroke-miterlimit:2;">
    <g transform="matrix(1,0,0,1,-2705,-2496)">
        <rect id="Logo---grafk" serif:id="Logo - grafk" x="2705" y="2496" width="1124" height="510" style="fill:none;"/>
        <g id="Logo---grafk1" serif:id="Logo - grafk">
            <g transform="matrix(2.301,0,0,2.301,-4250.36,-998.515)">
                <g transform="matrix(1.25781,0,0,1.25781,1930.12,376.469)">
                    <text x="968.815px" y="1061.78px" style="font-family:'TeluguMN', 'Telugu MN';font-size:49.69px;fill:rgb(16,5,23);">D<tspan x="1023.13px 1068.26px 1113.87px 1144.43px 1200.19px " y="1061.78px 1061.78px 1061.78px 1061.78px 1061.78px ">ESIGN</tspan></text>
                </g>
                <g transform="matrix(9.98156,0,0,9.98156,-1601.25,-16018)">
                    <g transform="matrix(14.7909,0,0,14.7909,466.055,1770.71)">
                        <path d="M0.027,0.134C0.027,0.134 0.055,0.099 0.078,0.072C0.091,0.055 0.116,0.051 0.134,0.063C0.169,0.086 0.206,0.098 0.247,0.098C0.282,0.098 0.311,0.092 0.333,0.082C0.356,0.072 0.368,0.057 0.368,0.039C0.368,0.008 0.342,-0.007 0.292,-0.007C0.278,-0.007 0.258,-0.006 0.231,-0.002C0.204,0.001 0.184,0.002 0.17,0.002C0.086,0.002 0.044,-0.028 0.044,-0.088C0.044,-0.105 0.051,-0.122 0.065,-0.139C0.079,-0.155 0.095,-0.167 0.114,-0.175C0.054,-0.214 0.024,-0.269 0.024,-0.34C0.024,-0.396 0.045,-0.442 0.086,-0.479C0.127,-0.515 0.177,-0.534 0.237,-0.534C0.284,-0.534 0.323,-0.525 0.355,-0.507L0.403,-0.563C0.403,-0.563 0.447,-0.523 0.472,-0.501C0.475,-0.497 0.478,-0.492 0.477,-0.487C0.477,-0.482 0.474,-0.477 0.47,-0.474C0.453,-0.461 0.429,-0.444 0.429,-0.444C0.449,-0.413 0.459,-0.377 0.459,-0.335C0.459,-0.276 0.441,-0.228 0.405,-0.193C0.369,-0.157 0.323,-0.139 0.268,-0.139C0.259,-0.139 0.247,-0.14 0.232,-0.142L0.212,-0.145C0.21,-0.145 0.201,-0.141 0.186,-0.134C0.171,-0.127 0.164,-0.12 0.164,-0.112C0.164,-0.099 0.175,-0.093 0.197,-0.093C0.207,-0.093 0.224,-0.095 0.248,-0.1C0.272,-0.105 0.292,-0.107 0.309,-0.107C0.428,-0.107 0.487,-0.06 0.487,0.036C0.487,0.088 0.464,0.13 0.416,0.16C0.368,0.19 0.311,0.205 0.244,0.205C0.164,0.205 0.092,0.181 0.027,0.134ZM0.149,-0.339C0.149,-0.308 0.157,-0.284 0.175,-0.265C0.192,-0.246 0.215,-0.237 0.244,-0.237C0.273,-0.237 0.295,-0.246 0.311,-0.264C0.326,-0.282 0.334,-0.307 0.334,-0.339C0.334,-0.366 0.326,-0.388 0.309,-0.406C0.292,-0.424 0.27,-0.434 0.244,-0.434C0.216,-0.434 0.193,-0.425 0.175,-0.407C0.158,-0.39 0.149,-0.367 0.149,-0.339Z" style="fill:rgb(114,114,125);fill-rule:nonzero;"/>
                    </g>
                    <g transform="matrix(14.7909,0,0,14.7909,475.55,1770.71)">
                        <path d="M0.385,-0.444C0.377,-0.426 0.356,-0.418 0.338,-0.424C0.325,-0.428 0.311,-0.431 0.296,-0.431C0.268,-0.431 0.243,-0.418 0.221,-0.392C0.199,-0.366 0.188,-0.335 0.188,-0.298L0.188,-0.036C0.188,-0.016 0.172,0 0.152,0L0.066,0L0.066,-0.523L0.174,-0.523C0.182,-0.523 0.188,-0.517 0.188,-0.509L0.188,-0.475C0.222,-0.514 0.268,-0.533 0.324,-0.533C0.366,-0.533 0.398,-0.526 0.42,-0.514C0.42,-0.514 0.4,-0.474 0.385,-0.444Z" style="fill:rgb(114,114,125);fill-rule:nonzero;"/>
                    </g>
                    <g transform="matrix(14.7909,0,0,14.7909,483.477,1770.71)">
                        <path d="M0.357,-0.052C0.346,-0.034 0.327,-0.019 0.299,-0.008C0.272,0.004 0.243,0.01 0.213,0.01C0.157,0.01 0.112,-0.004 0.08,-0.032C0.048,-0.061 0.032,-0.101 0.032,-0.152C0.032,-0.213 0.054,-0.26 0.1,-0.294C0.145,-0.329 0.21,-0.346 0.293,-0.346C0.308,-0.346 0.325,-0.343 0.344,-0.338C0.344,-0.4 0.305,-0.431 0.228,-0.431C0.195,-0.431 0.166,-0.427 0.141,-0.419C0.134,-0.417 0.125,-0.417 0.118,-0.421C0.111,-0.425 0.106,-0.431 0.104,-0.439C0.096,-0.466 0.086,-0.502 0.086,-0.502C0.128,-0.523 0.178,-0.533 0.236,-0.533C0.316,-0.533 0.374,-0.515 0.411,-0.478C0.448,-0.442 0.467,-0.373 0.467,-0.272L0.467,-0.16C0.467,-0.09 0.481,-0.047 0.509,-0.029C0.499,-0.011 0.487,0 0.475,0.004C0.463,0.008 0.449,0.01 0.433,0.01C0.415,0.01 0.399,0.003 0.385,-0.01C0.371,-0.023 0.362,-0.037 0.357,-0.052ZM0.345,-0.235C0.345,-0.241 0.34,-0.247 0.334,-0.248C0.319,-0.251 0.307,-0.252 0.298,-0.252C0.202,-0.252 0.154,-0.221 0.154,-0.158C0.154,-0.111 0.181,-0.087 0.235,-0.087C0.309,-0.087 0.345,-0.124 0.345,-0.197L0.345,-0.235Z" style="fill:rgb(114,114,125);fill-rule:nonzero;"/>
                    </g>
                    <g transform="matrix(14.7909,0,0,14.7909,493.428,1770.71)">
                        <path d="M0.367,-0.65C0.362,-0.637 0.347,-0.629 0.333,-0.633C0.318,-0.637 0.306,-0.639 0.296,-0.639C0.273,-0.639 0.253,-0.629 0.237,-0.609C0.221,-0.589 0.213,-0.565 0.213,-0.536C0.213,-0.531 0.213,-0.527 0.213,-0.523L0.292,-0.523C0.309,-0.523 0.322,-0.51 0.322,-0.493L0.322,-0.422L0.215,-0.422L0.215,-0.036C0.215,-0.016 0.199,0 0.179,0L0.093,0L0.093,-0.422L0.04,-0.422C0.027,-0.422 0.017,-0.432 0.017,-0.445L0.017,-0.523L0.094,-0.523C0.096,-0.587 0.115,-0.639 0.151,-0.678C0.186,-0.718 0.232,-0.737 0.288,-0.737C0.317,-0.737 0.352,-0.731 0.394,-0.718C0.394,-0.718 0.378,-0.677 0.367,-0.65Z" style="fill:rgb(114,114,125);fill-rule:nonzero;"/>
                    </g>
                    <g transform="matrix(14.7909,0,0,14.7909,500.965,1770.71)">
                        <path d="M0.443,0C0.416,0 0.392,-0.013 0.377,-0.036C0.334,-0.102 0.247,-0.237 0.247,-0.237L0.188,-0.175L0.188,-0.036C0.188,-0.016 0.172,0 0.152,0L0.066,0L0.066,-0.681C0.066,-0.702 0.081,-0.721 0.102,-0.726C0.138,-0.735 0.188,-0.747 0.188,-0.747L0.188,-0.322C0.188,-0.322 0.285,-0.433 0.334,-0.49C0.352,-0.511 0.378,-0.523 0.406,-0.523L0.509,-0.523L0.333,-0.325L0.545,0L0.443,0Z" style="fill:rgb(114,114,125);fill-rule:nonzero;"/>
                    </g>
                </g>
            </g>
        </g>
    </g>
</svg>
